<?xml version="1.0" encoding="UTF-8" standalone="no"?><!DOCTYPE svg PUBLIC "-//W3C//DTD SVG 1.1//EN" "http://www.w3.org/Graphics/SVG/1.1/DTD/svg11.dtd"><svg width="100%" height="100%" viewBox="0 0 761 761" version="1.1" xmlns="http://www.w3.org/2000/svg" xmlns:xlink="http://www.w3.org/1999/xlink" xml:space="preserve" xmlns:serif="http://www.serif.com/" style="fill-rule:evenodd;clip-rule:evenodd;stroke-linecap:round;stroke-linejoin:round;stroke-miterlimit:1.5;"><g><g><path d="M446.461,266.878l-66.451,-123.067l65.696,0l0.755,123.067Z" style="fill:#353332;"/><rect x="413.236" y="143.811" width="201.084" height="61.533" style="fill:#353332;"/><path d="M455.057,284.918l116.866,-1.473l0.903,65.432l-81.702,1.03l-36.067,-64.989Z" style="fill:#353332;"/></g><path d="M461.529,388.074l-36.451,-71.504l-37.567,-69.46c-0,0 -22.865,55.999 -0,56.723c15.877,0.076 22.184,19.286 22.468,35.946c0.317,18.642 -3.778,40.542 -29.479,40.721c-17.165,0.119 -8.912,57.047 3.962,58.451c13.942,1.52 84.964,-35.565 77.067,-50.877Z" style="fill:#141140;stroke:#141140;stroke-width:1px;"/><path d="M222.918,439.183c0.692,0.032 10.015,-58.589 -0.045,-58.653c-26.885,-0.17 -88.874,38.322 -88.041,84.989c0.127,7.117 63.853,5.326 63.907,0.57c0.182,-16.114 12.368,-27.447 24.179,-26.906Z" style="fill:#141140;stroke:#141140;stroke-width:0.83px;"/><rect x="134.825" y="466.089" width="63.914" height="58.004" style="fill:#141140;stroke:#141140;stroke-width:0.83px;"/><rect x="296.981" y="399.336" width="1.634" height="5.145" style="fill:#141140;stroke:#141140;stroke-width:0.83px;"/><rect x="222.918" y="380.464" width="161.966" height="58.719" style="fill:#141140;stroke:#141140;stroke-width:0.83px;"/><rect x="224.907" y="404.481" width="16.958" height="4.897" style="fill:#141140;stroke:#141140;stroke-width:0.83px;"/><rect x="224.907" y="411.961" width="12.004" height="3.948" style="fill:#141140;stroke:#141140;stroke-width:0.83px;"/><rect x="134.825" y="246.859" width="252.686" height="56.973" style="fill:#141140;stroke:#141140;stroke-width:0.83px;"/><rect x="134.825" y="511.9" width="339.901" height="58.004" style="fill:#141140;stroke:#141140;stroke-width:0.83px;"/></g></svg>