<svg xmlns="http://www.w3.org/2000/svg" version="1.1" xmlns:xlink="http://www.w3.org/1999/xlink" width="1000" height="1000"><g clip-path="url(#SvgjsClipPath1049)"><rect width="1000" height="1000" fill="#ffffff"></rect><g transform="matrix(0.6666666666666666,0,0,0.6666666666666666,0,0)"><svg xmlns="http://www.w3.org/2000/svg" version="1.1" xmlns:xlink="http://www.w3.org/1999/xlink" width="1500px" height="1500px"><svg xmlns="http://www.w3.org/2000/svg" xmlns:xlink="http://www.w3.org/1999/xlink" width="1500px" height="1500px" viewBox="0 0 1500 1500" version="1.1">
<g id="surface1">
<path style=" stroke:none;fill-rule:evenodd;fill:rgb(20.784314%,20%,19.607843%);fill-opacity:1;" d="M 880.015625 526.039062 L 749.035156 283.464844 L 878.527344 283.464844 Z M 880.015625 526.039062 "></path>
<path style=" stroke:none;fill-rule:evenodd;fill:rgb(20.784314%,20%,19.607843%);fill-opacity:1;" d="M 814.527344 283.464844 L 1210.878906 283.464844 L 1210.878906 404.75 L 814.527344 404.75 Z M 814.527344 283.464844 "></path>
<path style=" stroke:none;fill-rule:evenodd;fill:rgb(20.784314%,20%,19.607843%);fill-opacity:1;" d="M 896.957031 561.597656 L 1127.3125 558.695312 L 1129.09375 687.667969 L 968.050781 689.699219 Z M 896.957031 561.597656 "></path>
<path style="fill-rule:evenodd;fill:rgb(7.843138%,6.666667%,25.098041%);fill-opacity:1;stroke-width:1;stroke-linecap:round;stroke-linejoin:round;stroke:rgb(7.843138%,6.666667%,25.098041%);stroke-opacity:1;stroke-miterlimit:1.5;" d="M 461.528664 388.074328 L 425.077953 316.570055 L 387.511505 247.110969 C 387.511505 247.110969 364.645833 303.109867 387.511505 303.833214 C 403.387471 303.908521 409.695448 323.119807 409.978841 339.778573 C 410.295924 358.421091 406.201586 380.321641 380.5 380.5 C 363.335883 380.618906 371.587977 437.547255 384.46156 438.950349 C 398.403318 440.470367 469.426021 403.38549 461.528664 388.074328 Z M 461.528664 388.074328 " transform="matrix(1.971091,0,0,1.971091,0,0)"></path>
<path style="fill-rule:evenodd;fill:rgb(7.843138%,6.666667%,25.098041%);fill-opacity:1;stroke-width:0.83;stroke-linecap:round;stroke-linejoin:round;stroke:rgb(7.843138%,6.666667%,25.098041%);stroke-opacity:1;stroke-miterlimit:1.5;" d="M 222.91751 439.182216 C 223.609148 439.215906 232.93338 380.593143 222.873911 380.529727 C 195.987227 380.359294 133.999417 418.851229 134.83176 465.519951 C 134.958594 472.63649 198.684417 470.844969 198.739906 466.088719 C 198.920247 449.97494 211.106156 438.641193 222.91751 439.182216 Z M 222.91751 439.182216 " transform="matrix(1.971091,0,0,1.971091,0,0)"></path>
<path style="fill-rule:evenodd;fill:rgb(7.843138%,6.666667%,25.098041%);fill-opacity:1;stroke-width:0.83;stroke-linecap:round;stroke-linejoin:round;stroke:rgb(7.843138%,6.666667%,25.098041%);stroke-opacity:1;stroke-miterlimit:1.5;" d="M 134.825815 466.088719 L 198.739906 466.088719 L 198.739906 524.093169 L 134.825815 524.093169 Z M 134.825815 466.088719 " transform="matrix(1.971091,0,0,1.971091,0,0)"></path>
<path style="fill-rule:evenodd;fill:rgb(7.843138%,6.666667%,25.098041%);fill-opacity:1;stroke-width:0.83;stroke-linecap:round;stroke-linejoin:round;stroke:rgb(7.843138%,6.666667%,25.098041%);stroke-opacity:1;stroke-miterlimit:1.5;" d="M 296.98025 399.336732 L 298.615211 399.336732 L 298.615211 404.481409 L 296.98025 404.481409 Z M 296.98025 399.336732 " transform="matrix(1.971091,0,0,1.971091,0,0)"></path>
<path style="fill-rule:evenodd;fill:rgb(7.843138%,6.666667%,25.098041%);fill-opacity:1;stroke-width:0.83;stroke-linecap:round;stroke-linejoin:round;stroke:rgb(7.843138%,6.666667%,25.098041%);stroke-opacity:1;stroke-miterlimit:1.5;" d="M 222.91751 380.464328 L 384.883677 380.464328 L 384.883677 439.182216 L 222.91751 439.182216 Z M 222.91751 380.464328 " transform="matrix(1.971091,0,0,1.971091,0,0)"></path>
<path style="fill-rule:evenodd;fill:rgb(7.843138%,6.666667%,25.098041%);fill-opacity:1;stroke-width:0.83;stroke-linecap:round;stroke-linejoin:round;stroke:rgb(7.843138%,6.666667%,25.098041%);stroke-opacity:1;stroke-miterlimit:1.5;" d="M 224.907208 404.481409 L 241.865221 404.481409 L 241.865221 409.378365 L 224.907208 409.378365 Z M 224.907208 404.481409 " transform="matrix(1.971091,0,0,1.971091,0,0)"></path>
<path style="fill-rule:evenodd;fill:rgb(7.843138%,6.666667%,25.098041%);fill-opacity:1;stroke-width:0.83;stroke-linecap:round;stroke-linejoin:round;stroke:rgb(7.843138%,6.666667%,25.098041%);stroke-opacity:1;stroke-miterlimit:1.5;" d="M 224.907208 411.960612 L 236.910794 411.960612 L 236.910794 415.908299 L 224.907208 415.908299 Z M 224.907208 411.960612 " transform="matrix(1.971091,0,0,1.971091,0,0)"></path>
<path style="fill-rule:evenodd;fill:rgb(7.843138%,6.666667%,25.098041%);fill-opacity:1;stroke-width:0.83;stroke-linecap:round;stroke-linejoin:round;stroke:rgb(7.843138%,6.666667%,25.098041%);stroke-opacity:1;stroke-miterlimit:1.5;" d="M 134.825815 246.859284 L 387.511505 246.859284 L 387.511505 303.831232 L 134.825815 303.831232 Z M 134.825815 246.859284 " transform="matrix(1.971091,0,0,1.971091,0,0)"></path>
<path style="fill-rule:evenodd;fill:rgb(7.843138%,6.666667%,25.098041%);fill-opacity:1;stroke-width:0.83;stroke-linecap:round;stroke-linejoin:round;stroke:rgb(7.843138%,6.666667%,25.098041%);stroke-opacity:1;stroke-miterlimit:1.5;" d="M 134.825815 511.899333 L 474.725276 511.899333 L 474.725276 569.903784 L 134.825815 569.903784 Z M 134.825815 511.899333 " transform="matrix(1.971091,0,0,1.971091,0,0)"></path>
</g>
</svg></svg></g></g><defs><clipPath id="SvgjsClipPath1049"><rect width="1000" height="1000" x="0" y="0" rx="450" ry="450"></rect></clipPath></defs></svg>