<?xml version="1.0" encoding="UTF-8" standalone="no"?>
<!DOCTYPE svg PUBLIC "-//W3C//DTD SVG 1.1//EN" "http://www.w3.org/Graphics/SVG/1.1/DTD/svg11.dtd">
<svg width="100%" height="100%" viewBox="0 0 250 100" version="1.1" xmlns="http://www.w3.org/2000/svg" xmlns:xlink="http://www.w3.org/1999/xlink" xml:space="preserve" xmlns:serif="http://www.serif.com/" style="fill-rule:evenodd;clip-rule:evenodd;stroke-linecap:round;stroke-linejoin:round;stroke-miterlimit:1.5;">
    <g transform="matrix(0.378112,0,0,0.37,-281.684,-65.5607)">
        <g>
            <g transform="matrix(0.46523,0,0,0.471439,272.487,110.253)">
                <g transform="matrix(71.6609,0,0,71.6609,2380.56,503.097)">
                </g>
                <text x="1548px" y="503.097px" style="font-family:'Vogue-Regular', 'Vogue';font-size:71.661px;fill:rgb(53,51,50);">Resources E&amp;C Pte. Ltd.</text>
            </g>
            <g transform="matrix(1.04561,0,0,1.02157,-38.4601,-7.52665)">
                <g transform="matrix(-1.05426,1.23277,-1.24747,-1.06684,2140.75,-643.399)">
                    <path d="M914.114,201.899L898.008,240.982L885.421,226.438L914.114,201.899Z" style="fill:rgb(53,51,50);"/>
                </g>
                <g transform="matrix(0.869342,0,0,1.96771,131.367,-202.417)">
                    <rect x="894.83" y="207.838" width="110.599" height="15.64" style="fill:rgb(53,51,50);"/>
                </g>
                <g transform="matrix(-1.03802,0.0136897,-0.0141091,-1.06982,1956.17,593.916)">
                    <path d="M985.087,308.727L931.254,308.727L931.254,278.138L968.889,278.138L985.087,308.727Z" style="fill:rgb(53,51,50);"/>
                </g>
            </g>
            <g transform="matrix(1.07693,0,0,1,-70.2796,-1.13687e-13)">
                <path d="M934.801,328.275L917.879,291.742L900.439,256.254C900.439,256.254 888.599,284.865 899.219,284.982C906.472,285.062 913.101,297.906 913.29,305.682C913.475,313.283 911.151,324.329 899.219,324.421C891.25,324.482 893.04,353.6 899.017,354.317C905.489,355.094 938.467,336.099 934.801,328.275Z" style="fill:rgb(20,17,64);stroke:rgb(20,17,64);stroke-width:2.57px;"/>
            </g>
            <g transform="matrix(1.38443,0,0,1.4095,-297.204,-160.431)">
                <path d="M804.897,365.364C805.147,365.367 808.53,343.874 804.897,343.851C795.188,343.789 772.802,357.879 773.103,374.795C773.149,377.374 796.162,376.725 796.182,375.001C796.248,369.16 800.201,365.306 804.897,365.364Z" style="fill:rgb(20,17,64);stroke:rgb(20,17,64);stroke-width:1.59px;"/>
            </g>
            <g transform="matrix(1.15657,0,0,1.43958,-123.537,-161.826)">
                <rect x="775.259" y="368.135" width="27.629" height="20.586" style="fill:rgb(20,17,64);stroke:rgb(20,17,64);stroke-width:1.71px;"/>
            </g>
            <g transform="matrix(1.03446,0,0,1,-29.0952,0)">
                <rect x="775.476" y="256.125" width="122.125" height="29.109" style="fill:rgb(20,17,64);stroke:rgb(20,17,64);stroke-width:2.19px;"/>
            </g>
            <g transform="matrix(1.01272,0,0,1,-11.9972,0)">
                <rect x="775.235" y="391.541" width="167.803" height="29.635" style="fill:rgb(20,17,64);stroke:rgb(20,17,64);stroke-width:2.21px;"/>
            </g>
            <g transform="matrix(4.77985,0,0,1.18958,-3052.93,-65.6172)">
                <rect x="809.659" y="327.737" width="16.957" height="25.485" style="fill:rgb(20,17,64);stroke:rgb(20,17,64);stroke-width:0.63px;"/>
            </g>
        </g>
    </g>
</svg>
